<?xml version="1.0" standalone="no"?>
<!DOCTYPE svg PUBLIC "-//W3C//DTD SVG 20010904//EN"
 "http://www.w3.org/TR/2001/REC-SVG-20010904/DTD/svg10.dtd">
<svg version="1.0" xmlns="http://www.w3.org/2000/svg"
 width="105.000000pt" height="105.000000pt" viewBox="0 0 105.000000 105.000000"
 preserveAspectRatio="xMidYMid meet">
<metadata>
Created by potrace 1.14, written by Peter Selinger 2001-2017
</metadata>
<g transform="translate(0.000000,105.000000) scale(0.100000,-0.100000)"
fill="#000000" stroke="none">
<path d="M1014 730 c0 -179 2 -252 3 -162 2 89 2 235 0 325 -1 89 -3 16 -3
-163z"/>
<path d="M94 1002 c-13 -9 -34 -46 -34 -62 0 -18 47 -60 68 -60 10 0 26 6 37
13 16 13 15 14 -15 9 -36 -5 -50 8 -50 49 0 45 48 68 69 32 9 -16 10 -16 11 5
0 19 -5 22 -37 22 -21 0 -43 -4 -49 -8z"/>
<path d="M214 984 c-22 -33 -10 -72 29 -94 24 -13 30 -13 54 0 67 37 48 120
-27 120 -31 0 -43 -5 -56 -26z m80 0 c20 -51 -8 -110 -39 -84 -15 12 -21 81
-8 93 12 13 41 7 47 -9z"/>
<path d="M355 945 l0 -65 51 0 c48 0 52 2 57 27 4 24 4 26 -8 10 -7 -9 -22
-17 -34 -17 -19 0 -21 6 -21 49 0 30 5 51 13 54 6 3 -4 6 -23 6 l-35 1 0 -65z"/>
<path d="M485 945 l0 -66 50 3 c45 3 50 5 53 28 2 22 1 23 -8 8 -16 -26 -50
-23 -50 3 0 18 2 19 15 9 13 -11 15 -8 14 21 0 19 -3 28 -6 22 -8 -20 -23 -15
-23 7 0 22 35 28 43 8 3 -8 6 -6 6 5 1 14 -8 17 -46 17 l-48 0 0 -65z"/>
<path d="M627 992 c-25 -28 -21 -67 9 -91 40 -31 94 -26 94 9 0 10 6 21 13 23
6 3 -2 6 -20 6 -26 1 -30 -2 -26 -18 6 -24 -13 -36 -33 -20 -10 8 -14 26 -12
53 3 35 7 42 27 44 15 3 30 -3 38 -14 12 -17 13 -16 13 4 0 19 -5 22 -43 22
-30 0 -49 -6 -60 -18z"/>
<path d="M765 945 c0 -63 1 -65 25 -65 24 0 25 2 25 65 0 63 -1 65 -25 65 -24
0 -25 -2 -25 -65z"/>
<path d="M864 1002 c-26 -17 -35 -51 -22 -79 19 -41 61 -52 96 -26 33 24 39
56 18 89 -17 24 -67 33 -92 16z m64 -48 c4 -52 -22 -80 -44 -49 -27 37 -14 98
20 93 17 -2 22 -11 24 -44z"/>
<path d="M402 830 c-35 -18 -68 -41 -75 -51 -11 -17 -25 -19 -149 -19 l-138 0
0 -178 c0 -132 4 -192 15 -230 9 -29 13 -58 9 -64 -5 -7 -3 -8 6 -3 10 6 12 4
7 -9 -5 -11 -3 -15 5 -10 8 5 9 2 5 -9 -4 -10 -2 -16 6 -14 7 1 11 -6 10 -16
0 -10 2 -16 5 -13 7 7 32 -13 32 -26 0 -5 -6 -6 -12 -2 -7 4 -4 -2 6 -14 23
-26 34 -29 15 -4 -11 14 -10 14 8 -2 13 -10 20 -22 18 -26 -3 -4 3 -14 13 -21
15 -13 16 -12 3 4 -19 24 -5 21 32 -7 239 -179 608 -94 738 170 l34 69 3 202
4 203 -124 0 c-121 0 -125 1 -149 26 -43 46 -97 67 -184 72 -74 3 -85 1 -143
-28z m180 -190 c4 0 39 20 78 45 l70 45 -30 -60 c-16 -33 -30 -61 -30 -63 0
-2 11 -2 25 1 28 5 29 3 15 -32 -9 -24 -7 -26 46 -43 l56 -17 -56 -21 c-30
-11 -58 -24 -62 -27 -10 -11 -22 -87 -14 -85 5 1 22 -17 39 -41 l32 -43 -48
25 c-38 19 -58 23 -98 19 -47 -5 -50 -7 -51 -35 -1 -24 2 -29 17 -25 15 4 19
0 19 -20 0 -20 -3 -23 -21 -18 -19 6 -21 4 -17 -19 5 -22 2 -26 -19 -26 -22 0
-24 3 -19 26 6 23 4 26 -13 21 -17 -4 -21 0 -21 19 0 16 4 22 14 18 11 -4 14
2 14 25 -1 29 -3 31 -39 31 -21 0 -41 4 -44 10 -4 6 -27 -1 -57 -16 l-51 -26
35 50 c30 41 35 55 29 82 -6 30 -12 34 -76 54 l-69 22 63 19 c61 18 63 19 57
48 -5 26 -3 29 14 24 11 -3 20 -3 20 -1 0 3 -14 32 -31 66 l-31 61 39 -24 c21
-12 54 -33 73 -46 19 -13 37 -23 41 -23 6 0 13 23 40 120 l12 45 21 -82 c11
-46 23 -83 28 -83z m-405 -256 c-10 -10 -77 -22 -77 -14 0 4 17 12 38 17 37
10 51 8 39 -3z m748 5 c10 -16 3 -16 -35 -3 l-35 13 32 0 c17 1 35 -4 38 -10z
m-20 -50 c29 0 30 -1 7 -12 -26 -12 -52 -2 -60 24 -4 11 -2 12 9 2 7 -7 27
-13 44 -14z m-740 -78 c-15 -15 -16 -14 -9 14 10 44 18 53 22 26 2 -13 -4 -31
-13 -40z m730 -2 c-3 -5 -21 1 -40 14 -44 28 -35 42 10 16 19 -12 33 -25 30
-30z m-690 -24 c-43 -35 -56 -30 -17 6 19 17 37 28 40 24 3 -3 -7 -17 -23 -30z
m40 -14 c-3 -6 -11 -11 -17 -11 -6 0 -6 6 2 15 14 17 26 13 15 -4z m602 -4 c6
-10 -83 -4 -94 7 -4 4 14 6 40 5 27 -2 51 -7 54 -12z m-587 -36 c-12 -17 -26
-31 -31 -31 -12 0 -3 17 24 47 29 32 34 20 7 -16z m43 -26 c-9 -19 -20 -35
-25 -35 -11 0 -10 7 7 40 22 42 38 37 18 -5z m451 11 c15 -13 24 -26 20 -29
-9 -5 -64 36 -64 48 0 10 16 4 44 -19z m-404 -12 c0 -8 -7 -14 -15 -14 -12 0
-14 -7 -9 -26 5 -19 4 -25 -5 -20 -16 10 -14 41 4 56 8 7 12 17 8 23 -3 6 -1
7 5 3 7 -4 12 -14 12 -22z m38 -34 c-6 -22 -15 -40 -20 -40 -5 0 -6 10 -3 23
4 12 9 30 11 40 11 36 21 15 12 -23z m275 16 c15 -3 27 -12 27 -20 0 -11 -7
-11 -35 2 -19 9 -35 23 -35 32 0 9 3 11 8 4 4 -6 19 -14 35 -18z m-203 5 c0
-22 -13 -71 -19 -71 -4 0 -5 18 -3 40 2 22 8 40 13 40 5 0 9 -4 9 -9z m60 -29
c0 -15 6 -34 13 -41 10 -11 9 -13 -3 -9 -16 5 -33 78 -18 78 4 0 8 -13 8 -28z"/>
<path d="M465 519 c-4 -6 -5 -12 -2 -15 2 -3 7 2 10 11 7 17 1 20 -8 4z"/>
<path d="M1001 354 c0 -11 3 -14 6 -6 3 7 2 16 -1 19 -3 4 -6 -2 -5 -13z"/>
<path d="M975 281 c-13 -42 -93 -137 -146 -174 -30 -21 -82 -49 -115 -62 -32
-14 -52 -25 -43 -25 30 0 157 70 206 114 47 43 121 151 110 162 -3 3 -8 -4
-12 -15z"/>
<path d="M408 13 c7 -3 16 -2 19 1 4 3 -2 6 -13 5 -11 0 -14 -3 -6 -6z"/>
<path d="M618 13 c6 -2 18 -2 25 0 6 3 1 5 -13 5 -14 0 -19 -2 -12 -5z"/>
<path d="M498 3 c17 -2 47 -2 65 0 17 2 3 4 -33 4 -36 0 -50 -2 -32 -4z"/>
</g>
</svg>
